HIERARCHY
ROOT Hips
{
	OFFSET 0.000000 0.000000 0.000000
	CHANNELS 6 Xposition Yposition Zposition Zrotation Yrotation Xrotation 
	JOINT LowerBack
	{
		OFFSET 0.000000 0.000000 0.000000
		CHANNELS 3 Zrotation Yrotation Xrotation
		JOINT Spine
		{
			OFFSET 0.028270 2.035590 -0.193380
			CHANNELS 3 Zrotation Yrotation Xrotation
			JOINT Spine1
			{
				OFFSET 0.056720 2.048850 -0.042750
				CHANNELS 3 Zrotation Yrotation Xrotation
				JOINT Neck
				{
					OFFSET 0.000000 0.000000 0.000000
					CHANNELS 3 Zrotation Yrotation Xrotation
					JOINT Neck1
					{
						OFFSET -0.054170 1.746240 0.172020
						CHANNELS 3 Zrotation Yrotation Xrotation
						JOINT Head
						{
							OFFSET 0.104070 1.761360 -0.123970
							CHANNELS 3 Zrotation Yrotation Xrotation
							End Site
							{
								OFFSET 0.000000 0.000000 0.000000
							}
						}
					}
				}
				JOINT LeftShoulder
				{
					OFFSET 0.000000 0.000000 0.000000
					CHANNELS 3 Zrotation Yrotation Xrotation
					JOINT LeftArm
					{
						OFFSET 3.362410 1.200890 -0.311210
						CHANNELS 3 Zrotation Yrotation Xrotation
						JOINT LeftForeArm
						{
							OFFSET 4.983000 -0.000000 -0.000000
							CHANNELS 3 Zrotation Yrotation Xrotation
							JOINT LeftHand
							{
								OFFSET 3.483560 -0.000000 -0.000000
								CHANNELS 3 Zrotation Yrotation Xrotation
								JOINT LeftFingerBase
								{
									OFFSET 0.000000 0.000000 0.000000
									CHANNELS 3 Zrotation Yrotation Xrotation
									JOINT LeftHandIndex1
									{
										OFFSET 0.715260 -0.000000 -0.000000
										CHANNELS 3 Zrotation Yrotation Xrotation
										End Site
										{
											OFFSET 0.000000 0.000000 0.000000
										}
									}
								}
								JOINT LThumb
								{
									OFFSET 0.000000 0.000000 0.000000
									CHANNELS 3 Zrotation Yrotation Xrotation
									End Site
									{
										OFFSET 0.000000 0.000000 0.000000
									}
								}
							}
						}
					}
				}
				JOINT RightShoulder
				{
					OFFSET 0.000000 0.000000 0.000000
					CHANNELS 3 Zrotation Yrotation Xrotation
					JOINT RightArm
					{
						OFFSET -3.136600 1.374050 -0.404650
						CHANNELS 3 Zrotation Yrotation Xrotation
						JOINT RightForeArm
						{
							OFFSET -5.241900 -0.000000 -0.000000
							CHANNELS 3 Zrotation Yrotation Xrotation
							JOINT RightHand
							{
								OFFSET -3.444170 -0.000000 -0.000000
								CHANNELS 3 Zrotation Yrotation Xrotation
								JOINT RightFingerBase
								{
									OFFSET 0.000000 0.000000 0.000000
									CHANNELS 3 Zrotation Yrotation Xrotation
									JOINT RightHandIndex1
									{
										OFFSET -0.622530 -0.000000 -0.000000
										CHANNELS 3 Zrotation Yrotation Xrotation
										End Site
										{
											OFFSET 0.000000 0.000000 0.000000
										}
									}
								}
								JOINT RThumb
								{
									OFFSET 0.000000 0.000000 0.000000
									CHANNELS 3 Zrotation Yrotation Xrotation
									End Site
									{
										OFFSET 0.000000 0.000000 0.000000
									}
								}
							}
						}
					}
				}
			}
		}
	}
}
}
MOTION
Frames: 6
Frame Time: 0.008333
-2.072370 16.697667 -2.363459 -158.982617 78.603118 -152.520139 8.911144 -6.092584 -1.789327 1.452833 -6.755173 -3.262353 -5.765248 -6.811469 0.171651 13.264694 -20.142183 -10.005180 -2.520796 -0.169016 -0.573420 0.000000 0.000000 0.000000 14.340472 0.553447 -1.728192 -37.129655 -7.045491 6.688887 178.739907 -75.358238 179.891603 11.881638 -0.204904 -0.077340 -0.152632 0.536503 -0.000000 0.000000 0.000000 0.000000 0.000000 0.000000 0.000000 15.536952 -18.351688 1.887018 54.565806 -24.178759 -12.030637 2.648600 49.986907 -0.005821 -4.288222 -2.550915 0.099454 0.153798 -0.003750 -0.000000 0.000000 0.000000 0.000000 0.000000 0.000000 0.000000 
-1.938488 16.656141 -2.396087 -157.594017 78.061214 -151.489206 9.382245 -6.053610 -1.313092 1.486820 -6.739755 -3.207717 -6.024775 -6.796761 0.040234 13.587687 -19.719335 -10.091928 -2.704754 -0.182956 -0.605209 0.000000 0.000000 0.000000 13.415385 0.605938 -1.553343 -37.527258 -6.643392 7.064761 178.793081 -75.244549 179.889202 12.246574 -0.426824 -0.103915 -0.170058 0.537586 -0.000000 0.000000 0.000000 0.000000 0.000000 0.000000 0.000000 16.384417 -17.932819 1.901940 54.860941 -22.940582 -11.536633 2.639961 49.628162 -0.005196 -5.022546 -2.332672 0.105853 0.151251 -0.003896 -0.000000 0.000000 0.000000 0.000000 0.000000 0.000000 0.000000 
-1.810538 16.614094 -2.427424 -156.323535 77.454940 -150.600879 9.841126 -6.007547 -0.791812 1.511776 -6.713203 -3.151417 -6.300755 -6.771644 -0.122441 13.926421 -19.212823 -10.144657 -2.903577 -0.198380 -0.629025 0.000000 0.000000 0.000000 12.471710 0.561661 -1.372137 -38.043801 -6.230796 7.434954 178.856185 -75.278401 179.886864 12.631330 -0.689884 -0.136776 -0.187515 0.538867 -0.000000 0.000000 0.000000 0.000000 0.000000 0.000000 0.000000 17.281574 -17.440223 1.930939 55.241326 -21.635850 -11.006975 2.626667 49.150880 -0.004587 -5.899476 -2.095706 0.111150 0.148100 -0.004521 -0.000000 0.000000 0.000000 0.000000 0.000000 0.000000 0.000000 
-1.688316 16.571758 -2.457298 -155.164459 76.798605 -149.840667 10.282126 -5.951791 -0.234915 1.527685 -6.672316 -3.095701 -6.586804 -6.733196 -0.317687 14.272298 -18.611199 -10.153474 -3.114930 -0.215128 -0.642166 0.000000 0.000000 0.000000 11.524752 0.415832 -1.182733 -38.705583 -5.779375 7.791976 178.930066 -75.498724 179.885099 12.991489 -0.979641 -0.174239 -0.203537 0.539584 -0.000000 0.000000 0.000000 0.000000 0.000000 0.000000 0.000000 18.216272 -16.860503 1.975317 55.695223 -20.274165 -10.427204 2.607192 48.564063 -0.004132 -6.888952 -1.877445 0.115639 0.144110 -0.005656 -0.000000 0.000000 0.000000 0.000000 0.000000 0.000000 0.000000 
-1.571417 16.529450 -2.485868 -154.091784 76.101275 -149.172605 10.706388 -5.883792 0.343572 1.536909 -6.614492 -3.042954 -6.873360 -6.679132 -0.542842 14.615952 -17.911107 -10.113377 -3.334077 -0.232760 -0.643233 0.000000 0.000000 0.000000 10.590670 0.179185 -0.983802 -39.550928 -5.280214 8.128784 179.013913 -75.968171 179.884338 13.285793 -1.286219 -0.214319 -0.216607 0.539100 -0.000000 0.000000 0.000000 0.000000 0.000000 0.000000 0.000000 19.170455 -16.188903 2.035299 56.205968 -18.851130 -9.781724 2.581125 47.872704 -0.003948 -7.941225 -1.708048 0.120720 0.139129 -0.007457 -0.000000 0.000000 0.000000 0.000000 0.000000 0.000000 0.000000 
-1.459336 16.487672 -2.513287 -153.098919 75.369602 -148.579557 11.113279 -5.802045 0.929329 1.541456 -6.538251 -2.994962 -7.151651 -6.608120 -0.793493 14.950091 -17.115182 -10.022901 -3.556215 -0.250780 -0.631744 0.000000 0.000000 0.000000 9.676885 -0.133087 -0.773337 -40.603405 -4.733633 8.432257 179.104866 -76.747013 179.884874 13.485739 -1.598283 -0.254732 -0.225551 0.536731 -0.000000 0.000000 0.000000 0.000000 0.000000 0.000000 0.000000 20.130289 -15.427028 2.109669 56.750853 -17.356982 -9.051018 2.548767 47.086816 -0.004148 -8.997576 -1.607427 0.128094 0.133179 -0.010131 -0.000000 0.000000 0.000000 0.000000 0.000000 0.000000 0.000000 
